# Blender 4.0.2
# www.blender.org
mtllib 无标题.mtl
o SM_SpaceShip_01
v 1.504435 -0.325666 -0.854663
v 1.504435 0.325666 -0.854663
v -1.968789 -0.325666 -1.000000
v -2.077539 0.325666 -0.888142
v -1.968789 -0.504186 0.000000
v -2.039733 0.324077 0.000000
v 1.504435 -0.325666 -0.000000
v 1.504435 0.325666 -0.000000
v 3.347178 0.067290 -0.269130
v 3.347178 -0.067290 -0.269130
v 3.347178 -0.067290 -0.000000
v 3.347178 0.067290 -0.000000
v 0.917454 -0.325666 -1.000000
v 0.917454 0.325666 -1.000000
v 0.917454 0.325666 -0.000000
v 0.917454 -0.504186 -0.000000
v -1.925711 0.104636 -1.963001
v -1.925711 -0.104636 -1.963001
v 0.136306 -0.133598 -2.110847
v -0.054443 0.208663 -1.985566
v -1.671785 -0.231576 -3.494089
v -1.671785 -0.355422 -3.478254
v -0.527561 -0.355422 -3.478254
v -0.527561 -0.231576 -3.494089
v -2.931140 0.325666 0.000000
v -2.840099 0.325666 -0.748588
v -2.931140 -0.221788 -0.778396
v -2.931140 -0.325666 0.000000
v -1.968789 0.325666 -1.000000
v 0.136306 0.133598 -2.110847
v -2.931140 0.270464 -0.778396
v -2.931140 0.214982 0.000000
v -2.931140 -0.214982 0.000000
v -2.077539 0.325666 -0.791779
v 1.504435 -0.325666 -0.568895
v -1.968789 -0.504186 -0.819494
v 1.504435 0.325666 -0.568895
v 3.347178 -0.067290 -0.184189
v 0.917454 0.325666 -0.744823
v 0.917454 -0.504186 -0.819495
v -2.840099 0.325666 -0.704402
v -2.931140 -0.325666 -0.637892
v -2.931140 -0.214982 -0.637892
v -2.931140 0.214982 -0.637892
v -3.805444 0.136157 0.000000
v -3.805444 -0.136157 0.000000
v -3.805444 -0.136157 -0.390252
v -3.805444 0.136157 -0.390252
v -3.805444 0.090044 0.000000
v -3.805444 -0.090044 0.000000
v -3.805444 -0.090044 -0.324169
v -3.805444 0.090044 -0.324169
v -3.183729 0.090044 0.000000
v -3.183729 -0.090044 0.000000
v -3.183729 -0.090044 -0.324169
v -3.183729 0.090044 -0.324169
v -1.799251 0.775083 0.000000
v 0.272005 0.650333 -0.000000
v -1.799251 0.775083 -0.452650
v 0.272005 0.650333 -0.575024
v 1.118922 0.325666 -1.000000
v 1.118923 0.325666 -0.000000
v 1.118923 -0.325666 -0.000000
v 1.118922 -0.325666 -1.000000
v -0.410535 -0.316319 -3.250252
v -0.421887 -0.173448 -3.273905
v -1.715381 -0.316319 -3.250252
v -1.711152 -0.173448 -3.273904
v -1.382960 2.110572 -3.857882
v -1.132900 2.110572 -3.857882
v -1.109806 2.123276 -3.809764
v -1.391563 2.123276 -3.809763
v -1.099789 -2.621685 -2.936951
v -1.391866 -2.621685 -2.936951
v -1.072814 -2.612671 -2.880746
v -1.401915 -2.612671 -2.880746
v -0.142790 0.083505 -2.692376
v -1.815125 0.083505 -2.692375
v -0.137114 -0.224958 -2.680549
v -1.817239 -0.224958 -2.680549
v 4.857171 -0.310236 -3.080602
v 4.860112 -0.301071 -2.990382
v 4.859555 -0.281210 -3.085645
v 4.860057 -0.267587 -2.999623
v 4.861412 -0.274501 -2.767810
v 4.861385 -0.202284 -2.772430
v -3.644497 -0.279692 -3.297940
v -3.643044 -0.266061 -3.145354
v -3.646398 -0.236520 -3.307351
v -3.643369 -0.216257 -3.159920
v -3.635207 -0.222931 -2.858287
v -3.635369 -0.098606 -2.865570
v 1.527875 -0.468115 -0.517968
v 1.527874 -0.468115 -0.732485
v 2.911159 -0.422845 -0.229182
v 2.911159 -0.422845 -0.292945
v 3.385510 -0.273653 -0.158590
v 3.385510 -0.273653 -0.192441
v 3.369098 -0.332514 -0.177930
v 3.369098 -0.332514 -0.203341
v 2.870057 0.134188 -0.000000
v 2.870057 0.134188 -0.420736
v 2.870057 -0.134188 -0.420736
v 2.870057 -0.134188 -0.000000
v 2.870057 -0.134188 -0.283796
v 2.870057 0.134188 -0.283796
v 2.553000 -0.447435 -0.406750
v 2.553000 -0.447435 -0.303954
v 1.563729 0.270901 -0.534677
v 1.563729 0.270901 -0.000000
v 2.797988 0.097843 -0.000000
v 2.797988 0.097843 -0.277003
v -1.950628 -0.200946 -1.405984
v 0.878499 -0.281033 -1.258139
v 0.469664 0.312776 -1.383420
v -1.950628 0.200946 -1.405984
v -1.957242 -0.281033 -1.258139
v -1.957242 0.281033 -1.258139
v 0.878499 0.281033 -1.258139
v -1.919097 -0.133598 -2.110846
v -1.645387 0.208663 -1.985566
v -1.919097 0.133598 -2.110846
v -1.672324 0.312776 -1.383419
v -1.234340 -0.200946 -1.373942
v -1.209423 -0.104636 -1.930959
v -1.234340 0.200946 -1.373942
v -1.209423 0.104636 -1.930959
v -1.920605 -0.126996 -2.077146
v -1.955734 -0.262778 -1.291839
v -1.920605 0.126996 -2.077146
v -1.955734 0.262778 -1.291839
v -2.410723 -0.141562 -2.123950
v -2.444434 -0.271859 -1.278024
v -2.410723 0.141562 -2.123950
v -2.444434 0.271859 -1.278024
v -2.403815 -0.171813 -2.232208
v -2.451341 -0.355511 -1.169767
v -2.403815 0.171813 -2.232208
v -2.451341 0.355511 -1.169767
v -2.032495 0.253239 -1.309554
v -1.998640 -0.122386 -2.066356
v -2.032495 -0.253239 -1.309554
v -1.998640 0.122386 -2.066356
v -3.010329 -0.220853 0.000000
v -3.010329 0.220853 -0.634725
v -3.010329 0.220853 0.000000
v -3.010329 -0.220853 -0.634725
v -2.039733 0.324077 -0.691583
v -2.931140 0.325666 -0.637892
v -2.482883 1.265779 -0.403317
v -2.482883 1.265779 -0.459363
v -2.835934 1.265779 -0.398306
v -2.835934 1.265779 -0.424005
v -1.757979 0.199752 -2.037101
v -1.099673 -0.355422 -3.658933
v -1.099673 -0.231576 -3.674768
v -0.561139 0.324871 -0.905159
v -0.690852 0.775083 0.000000
v -0.690852 0.775083 -0.635717
v -1.066519 -0.098879 -3.183632
v -1.062958 -0.316319 -3.159980
v -1.257930 2.110572 -3.870169
v -1.250684 2.123276 -3.809764
v -1.245828 -2.621685 -2.964482
v -1.237365 -2.612671 -2.880746
v -1.789526 0.321686 -1.331885
v 0.082568 0.104038 -2.222815
v -1.899078 0.104038 -2.222815
v 0.083661 -0.151188 -2.220538
v -1.899485 -0.151188 -2.220538
v -1.836017 -0.123667 -2.115353
v -1.836017 0.121751 -2.115353
v 0.051869 0.121751 -2.115353
v 0.051869 -0.123667 -2.115353
v 0.002511 0.094601 -2.218196
v -1.817630 0.094601 -2.218196
v 0.003515 -0.139824 -2.216104
v -1.818004 -0.139824 -2.216104
v -2.065505 0.378585 -0.670899
v 0.894331 0.364439 -0.734825
v 0.894331 0.364439 -0.000000
v -2.065505 0.378585 0.000000
v -0.576489 0.379310 -0.888852
v 2.146300 -0.367947 -3.357566
v 2.015007 -0.368731 -3.367086
v 2.281657 -0.250687 -2.625517
v 2.409118 -0.251953 -2.627555
v 2.147644 -0.257811 -3.371325
v 2.016570 -0.256701 -3.381071
v 2.071321 -0.198339 -3.198218
v 2.221025 -0.200666 -3.190530
v 1.986992 -0.387678 -3.417344
v 2.138001 -0.386777 -3.406395
v 2.293683 -0.251908 -2.564421
v 2.440284 -0.253365 -2.566766
v 2.230125 -0.346761 -3.165625
v 2.080147 -0.346984 -3.172953
v 2.289305 0.064836 -2.577050
v 2.435469 0.070721 -2.579154
v 2.139547 -0.260102 -3.422219
v 1.988791 -0.258825 -3.433429
v 2.226397 -0.333156 -3.148231
v 2.095999 -0.333350 -3.154602
v 2.277851 -0.065223 -2.636497
v 2.404932 -0.069761 -2.638326
v 2.088326 -0.204111 -3.176569
v 2.218485 -0.206135 -3.169884
v -0.273825 -0.270639 -2.965401
v -1.766310 -0.270639 -2.965400
v 2.317757 -0.292555 -2.887893
v -0.282338 0.006744 -2.983140
v -1.763139 0.006744 -2.983140
v 4.860762 -0.290591 -2.879096
v 4.860721 -0.229321 -2.886026
v -3.639125 -0.250630 -2.983577
v -3.639369 -0.145151 -2.994502
v 2.188828 -0.292018 -2.890059
v 2.183088 -0.134667 -2.906533
v 2.311709 -0.137948 -2.904105
v 2.335204 -0.300063 -2.866195
v 2.186915 -0.299446 -2.868687
v 2.328247 -0.007705 -2.884841
v 2.180313 -0.015036 -2.887634
v 3.120346 0.067357 -0.321611
v 3.072787 0.074025 -0.336723
v 2.756769 -0.381046 -0.340768
v 2.803802 -0.377817 -0.325823
v 3.121274 -0.095081 -0.321317
v 3.071859 -0.102009 -0.337018
v 2.803866 -0.377813 -0.258420
v 2.756704 -0.381051 -0.268266
v 3.071277 -0.102091 -0.241260
v 3.121856 -0.094999 -0.230700
v 3.140623 0.096814 -0.000000
v 3.080624 0.104664 -0.000000
v 3.060005 -0.104864 -0.354280
v 3.142043 -0.096615 -0.335587
v 3.061110 0.104709 -0.353929
v 3.140939 0.096770 -0.335938
v 3.142737 -0.096518 -0.227707
v 3.059311 -0.104961 -0.240278
v 2.764087 -0.433217 -0.340952
v 2.684885 -0.437062 -0.358744
v 2.684808 -0.437067 -0.272429
v 2.764164 -0.433212 -0.260708
v 3.059467 -0.104939 -0.000000
v 3.142581 -0.096540 -0.000000
v 3.121725 -0.095017 -0.000000
v 3.071407 -0.102073 -0.000000
v 3.073053 0.073988 -0.000000
v 3.120080 0.067394 -0.000000
v -2.208977 0.795722 -0.597548
v -2.766783 0.795722 -0.551354
v -2.766783 0.795722 -0.586297
v -2.208977 0.795722 -0.673752
v 0.024022 0.199752 -2.037101
v 0.637840 0.321686 -1.331885
v -1.727257 0.132320 -2.014699
v 0.002032 0.132320 -2.014699
v 0.597692 0.250646 -1.330344
v -1.757871 0.250646 -1.330344
v -1.669554 0.138064 -1.981476
v -0.036962 0.138064 -1.981477
v 0.500864 0.244902 -1.363567
v -1.697196 0.244902 -1.363567
v 1.060852 -0.325666 -1.000000
v 1.060852 0.325666 -1.000000
v 1.060852 0.325666 -0.000000
v 1.060852 -0.377121 -0.000000
v 1.060852 -0.377121 -0.819495
v 1.062580 0.305901 -0.982356
v 1.117195 0.305901 -0.982356
v 1.062580 0.305901 -0.000000
v 1.117195 0.305901 -0.000000
v 1.062580 -0.355060 -0.000000
v 1.117195 -0.306667 -0.000000
v 1.062580 -0.306667 -0.982356
v 1.117195 -0.306667 -0.982356
v 1.504435 -0.325666 0.854663
v 1.504435 0.325666 0.854663
v -1.968789 -0.325666 1.000000
v -2.077539 0.325666 0.888143
v 3.347178 0.067290 0.269129
v 3.347178 -0.067290 0.269129
v 0.917454 -0.325666 1.000000
v 0.917454 0.325666 1.000000
v -1.925710 0.104636 1.963001
v -1.925710 -0.104636 1.963001
v 0.136306 -0.133598 2.110847
v -0.054442 0.208663 1.985566
v -1.671784 -0.231576 3.494089
v -1.671784 -0.355422 3.478254
v -0.527560 -0.355422 3.478254
v -0.527560 -0.231576 3.494089
v -2.840099 0.325666 0.748589
v -2.931140 -0.221788 0.778397
v -1.968789 0.325666 1.000000
v 0.136306 0.133598 2.110847
v -2.931140 0.270464 0.778397
v -2.077539 0.325666 0.791779
v 1.504435 -0.325666 0.568894
v -1.968789 -0.504186 0.819495
v 1.504435 0.325666 0.568894
v 3.347178 -0.067290 0.184188
v 0.917454 0.325666 0.744823
v 0.917454 -0.504186 0.819494
v -2.840099 0.325666 0.704403
v -2.931140 -0.325666 0.637892
v -2.931140 -0.214982 0.637892
v -2.931140 0.214982 0.637892
v -3.805444 -0.136157 0.390253
v -3.805444 0.136157 0.390253
v -3.805444 -0.090044 0.324170
v -3.805444 0.090044 0.324170
v -3.183729 -0.090044 0.324170
v -3.183729 0.090044 0.324170
v -1.799251 0.775083 0.452651
v 0.272005 0.650333 0.575024
v 1.118923 0.325666 1.000000
v 1.118923 -0.325666 1.000000
v -0.410534 -0.316319 3.250252
v -0.421886 -0.173448 3.273905
v -1.715381 -0.316319 3.250252
v -1.711152 -0.173448 3.273905
v -1.382959 2.110572 3.857883
v -1.132899 2.110572 3.857882
v -1.109805 2.123276 3.809764
v -1.391562 2.123276 3.809764
v -1.099788 -2.621685 2.936951
v -1.391866 -2.621685 2.936951
v -1.072813 -2.612671 2.880746
v -1.401915 -2.612671 2.880747
v -0.142790 0.083505 2.692376
v -1.815124 0.083505 2.692376
v -0.137114 -0.224958 2.680549
v -1.817238 -0.224958 2.680549
v 4.857172 -0.310236 3.080601
v 4.860113 -0.301071 2.990380
v 4.859556 -0.281210 3.085643
v 4.860058 -0.267587 2.999621
v 4.861413 -0.274501 2.767808
v 4.861386 -0.202284 2.772428
v -3.644496 -0.279692 3.297940
v -3.643043 -0.266061 3.145355
v -3.646397 -0.236520 3.307353
v -3.643368 -0.216257 3.159921
v -3.635206 -0.222931 2.858288
v -3.635368 -0.098606 2.865571
v 1.527875 -0.468115 0.517968
v 1.527875 -0.468115 0.732485
v 2.911159 -0.422845 0.229181
v 2.911159 -0.422845 0.292944
v 3.385510 -0.273653 0.158589
v 3.385510 -0.273653 0.192440
v 3.369098 -0.332514 0.177929
v 3.369098 -0.332514 0.203340
v 2.870057 0.134188 0.420735
v 2.870057 -0.134188 0.420735
v 2.870057 -0.134188 0.283796
v 2.870057 0.134188 0.283796
v 2.553000 -0.447435 0.406750
v 2.553000 -0.447435 0.303954
v 1.563729 0.270901 0.534676
v 2.797988 0.097843 0.277002
v -1.950628 -0.200946 1.405985
v 0.878500 -0.281033 1.258139
v 0.469664 0.312776 1.383420
v -1.950628 0.200946 1.405985
v -1.957242 -0.281033 1.258140
v -1.957242 0.281033 1.258140
v 0.878500 0.281033 1.258139
v -1.919096 -0.133598 2.110847
v -1.645387 0.208663 1.985566
v -1.919096 0.133598 2.110847
v -1.672323 0.312776 1.383420
v -1.234340 -0.200946 1.373942
v -1.209422 -0.104636 1.930959
v -1.234340 0.200946 1.373942
v -1.209422 0.104636 1.930959
v -1.920604 -0.126996 2.077147
v -1.955734 -0.262778 1.291839
v -1.920604 0.126996 2.077147
v -1.955734 0.262778 1.291839
v -2.410722 -0.141562 2.123951
v -2.444434 -0.271859 1.278025
v -2.410722 0.141562 2.123951
v -2.444434 0.271859 1.278025
v -2.403814 -0.171813 2.232208
v -2.451341 -0.355511 1.169767
v -2.403814 0.171813 2.232208
v -2.451341 0.355511 1.169767
v -2.032495 0.253239 1.309554
v -1.998640 -0.122386 2.066357
v -2.032495 -0.253239 1.309554
v -1.998640 0.122386 2.066357
v -3.010329 0.220853 0.634726
v -3.010329 -0.220853 0.634726
v -2.039733 0.324077 0.691583
v -2.931140 0.325666 0.637892
v -2.482883 1.265779 0.403317
v -2.482883 1.265779 0.459363
v -2.835934 1.265779 0.398306
v -2.835934 1.265779 0.424006
v -1.757978 0.199752 2.037101
v -1.099672 -0.355422 3.658933
v -1.099672 -0.231576 3.674768
v -0.561139 0.324871 0.905159
v -0.690852 0.775083 0.635717
v -1.066519 -0.098879 3.183632
v -1.062957 -0.316319 3.159980
v -1.257929 2.110572 3.870169
v -1.250683 2.123276 3.809764
v -1.245827 -2.621685 2.964482
v -1.237364 -2.612671 2.880746
v -1.789525 0.321686 1.331885
v 0.082569 0.104038 2.222815
v -1.899077 0.104038 2.222815
v 0.083662 -0.151188 2.220538
v -1.899484 -0.151188 2.220538
v -1.836017 -0.123667 2.115353
v -1.836017 0.121751 2.115353
v 0.051870 0.121751 2.115353
v 0.051870 -0.123667 2.115353
v 0.002512 0.094601 2.218196
v -1.817629 0.094601 2.218196
v 0.003516 -0.139824 2.216104
v -1.818003 -0.139824 2.216105
v -2.065505 0.378585 0.670900
v 0.894331 0.364439 0.734825
v -0.576488 0.379310 0.888852
v 2.146301 -0.367947 3.357566
v 2.015007 -0.368731 3.367085
v 2.281658 -0.250687 2.625516
v 2.409118 -0.251953 2.627555
v 2.147645 -0.257811 3.371324
v 2.016571 -0.256701 3.381071
v 2.071322 -0.198339 3.198218
v 2.221026 -0.200666 3.190530
v 1.986993 -0.387678 3.417343
v 2.138002 -0.386777 3.406395
v 2.293684 -0.251908 2.564420
v 2.440284 -0.253365 2.566765
v 2.230126 -0.346761 3.165625
v 2.080148 -0.346984 3.172953
v 2.289305 0.064836 2.577049
v 2.435470 0.070721 2.579153
v 2.139548 -0.260102 3.422219
v 1.988792 -0.258825 3.433428
v 2.226398 -0.333156 3.148230
v 2.096000 -0.333350 3.154601
v 2.277851 -0.065223 2.636497
v 2.404933 -0.069761 2.638325
v 2.088326 -0.204111 3.176568
v 2.218486 -0.206135 3.169883
v -0.273824 -0.270639 2.965401
v -1.766309 -0.270639 2.965401
v 2.317758 -0.292555 2.887892
v -0.282338 0.006744 2.983140
v -1.763138 0.006744 2.983140
v 4.860763 -0.290591 2.879094
v 4.860722 -0.229321 2.886024
v -3.639124 -0.250630 2.983579
v -3.639368 -0.145151 2.994503
v 2.188829 -0.292018 2.890059
v 2.183089 -0.134667 2.906532
v 2.311710 -0.137948 2.904104
v 2.335205 -0.300063 2.866195
v 2.186916 -0.299446 2.868686
v 2.328248 -0.007705 2.884841
v 2.180314 -0.015036 2.887633
v 3.120346 0.067357 0.321611
v 3.072787 0.074025 0.336722
v 2.756769 -0.381046 0.340767
v 2.803802 -0.377817 0.325822
v 3.121274 -0.095081 0.321316
v 3.071859 -0.102009 0.337017
v 2.803866 -0.377813 0.258419
v 2.756704 -0.381051 0.268265
v 3.071277 -0.102091 0.241259
v 3.121856 -0.094999 0.230700
v 3.060005 -0.104864 0.354279
v 3.142043 -0.096615 0.335586
v 3.061110 0.104709 0.353928
v 3.140939 0.096770 0.335937
v 3.142737 -0.096518 0.227706
v 3.059311 -0.104961 0.240277
v 2.764087 -0.433217 0.340951
v 2.684885 -0.437062 0.358743
v 2.684808 -0.437067 0.272428
v 2.764164 -0.433212 0.260707
v -2.208977 0.795722 0.597548
v -2.766783 0.795722 0.551355
v -2.766783 0.795722 0.586297
v -2.208977 0.795722 0.673753
v 0.024023 0.199752 2.037101
v 0.637840 0.321686 1.331885
v -1.727257 0.132320 2.014699
v 0.002032 0.132320 2.014699
v 0.597692 0.250646 1.330344
v -1.757871 0.250646 1.330344
v -1.669554 0.138064 1.981477
v -0.036962 0.138064 1.981477
v 0.500865 0.244902 1.363567
v -1.697195 0.244902 1.363567
v 1.060852 -0.325666 1.000000
v 1.060852 0.325666 1.000000
v 1.060852 -0.377121 0.819494
v 1.062580 0.305901 0.982356
v 1.117195 0.305901 0.982356
v 1.062580 -0.306667 0.982356
v 1.117195 -0.306667 0.982356
vn 0.0530 -0.3290 0.9429
vn -0.0000 -1.0000 -0.0000
vn -0.0000 1.0000 -0.0000
vn -0.4559 0.5234 -0.7198
vn 0.9832 0.1826 -0.0000
vn 0.3171 -0.3440 -0.8838
vn -0.1300 0.5253 -0.8410
vn -0.0000 -0.7110 -0.7032
vn 0.0165 0.0594 0.9981
vn -0.0000 0.9854 -0.1704
vn -0.1088 0.1358 0.9847
vn -0.9761 0.0896 -0.1982
vn -0.0981 0.0443 0.9942
vn -1.0000 -0.0000 -0.0000
vn -0.1824 -0.9832 -0.0000
vn -0.2244 -0.0000 -0.9745
vn -0.0942 -0.1498 -0.9842
vn -0.0221 -0.9906 0.1348
vn -0.0158 -0.9909 0.1340
vn -0.0186 -0.9908 0.1344
vn 0.2989 -0.1210 -0.9466
vn -0.0076 -0.9854 0.1700
vn 0.7543 -0.0000 -0.6565
vn -0.7366 0.6707 0.0870
vn 0.0282 0.9657 -0.2579
vn 0.0278 0.9658 -0.2578
vn 0.0287 0.9657 -0.2581
vn -0.2173 0.1507 0.9644
vn 0.6311 -0.7083 -0.3162
vn 1.0000 -0.0000 -0.0000
vn 0.3528 -0.0000 -0.9357
vn -0.1059 0.9944 -0.0000
vn -0.2412 -0.7287 -0.6410
vn 0.0078 1.0000 0.0030
vn 0.0001 1.0000 0.0047
vn -0.0001 1.0000 0.0011
vn -0.0002 1.0000 0.0018
vn 0.1389 -0.9903 -0.0000
vn 0.0018 1.0000 -0.0000
vn 0.0081 0.9999 0.0067
vn 0.0018 1.0000 0.0082
vn -0.2939 -0.0000 -0.9558
vn -0.1059 -0.9944 -0.0000
vn -0.0000 -0.0000 1.0000
vn 0.1285 0.9917 -0.0000
vn 0.4175 0.9087 -0.0000
vn -0.8302 0.5575 -0.0000
vn 0.9962 0.0871 -0.0000
vn -0.9959 -0.0906 -0.0000
vn 0.9972 -0.0717 -0.0204
vn 0.9992 -0.0392 -0.0000
vn 0.9992 -0.0392 -0.0011
vn 0.0293 0.9656 -0.2583
vn 0.0299 0.9655 -0.2585
vn -0.0282 0.9770 -0.2111
vn 0.0095 0.8689 -0.4948
vn -0.0214 -0.9877 0.1546
vn -0.0068 -0.9876 0.1566
vn -0.0070 -0.9876 0.1566
vn -0.0067 -0.9877 0.1565
vn 0.0107 0.9730 -0.2308
vn 0.8742 0.1544 -0.4603
vn -0.2652 -0.1070 -0.9582
vn 0.1353 0.2712 0.9530
vn 0.0113 -0.9917 0.1279
vn -0.9748 -0.1582 -0.1572
vn 0.8678 -0.3120 -0.3868
vn 0.2663 -0.2926 -0.9184
vn -0.0000 0.9990 -0.0437
vn -0.9844 -0.0000 -0.1760
vn 0.9015 -0.0000 -0.4327
vn 0.9991 -0.0405 -0.0143
vn 1.0000 -0.0000 -0.0058
vn -0.6689 -0.6483 0.3637
vn -0.9873 0.0315 0.1557
vn -0.9997 -0.0195 0.0171
vn -0.9995 0.0007 0.0308
vn -0.9997 0.0003 0.0247
vn -0.9997 0.0003 0.0241
vn -0.0151 -0.9846 0.1744
vn -0.0577 0.8719 -0.4863
vn 0.3028 -0.0000 -0.9530
vn -0.9867 -0.1624 -0.0000
vn -0.2174 0.2045 0.9544
vn 0.9633 -0.2686 -0.0000
vn 0.2658 -0.2114 -0.9406
vn 0.1935 -0.9811 -0.0000
vn -0.1505 0.0109 0.9885
vn 0.0685 -0.9977 -0.0000
vn 0.3066 -0.4484 -0.8396
vn 0.0202 -0.9998 -0.0000
vn 0.1389 0.9903 -0.0000
vn 0.1487 0.9889 0.0029
vn 0.1512 0.9885 -0.0000
vn 0.1517 -0.9884 -0.0000
vn 0.1457 -0.9893 -0.0000
vn -0.1282 0.4220 0.8975
vn -0.4503 0.8929 -0.0000
vn 0.6785 0.7346 -0.0000
vn 0.9888 -0.0000 -0.1492
vn -0.9990 -0.0000 -0.0447
vn 0.0447 -0.0000 -0.9990
vn -0.0447 -0.0000 0.9990
vn -0.0076 0.9854 0.1700
vn -0.2508 -0.0000 -0.9680
vn 0.3166 -0.0000 0.9486
vn -0.1133 -0.9816 0.1538
vn -0.3150 -0.0000 0.9491
vn -0.9980 -0.0000 -0.0637
vn -0.9991 -0.0000 -0.0425
vn 0.1836 0.9700 -0.1595
vn 0.3788 -0.0000 -0.9255
vn -0.1133 0.9816 0.1538
vn 0.1836 -0.9700 -0.1595
vn -0.0819 -0.9814 -0.1734
vn -0.1370 -0.0000 -0.9906
vn -0.0819 0.9814 -0.1734
vn -0.2249 -0.0000 0.9744
vn 0.0739 -0.9973 -0.0000
vn -0.0399 -0.0000 -0.9992
vn 0.0739 0.9973 -0.0000
vn 0.0113 0.9999 0.0059
vn 0.0027 0.9999 0.0097
vn -0.3288 0.9048 -0.2704
vn -0.1075 0.9217 -0.3726
vn 0.0018 0.9999 0.0101
vn -0.9894 -0.1455 -0.0000
vn -0.1262 0.3289 -0.9359
vn 0.8640 0.5035 -0.0000
vn -0.0000 -0.9854 -0.1704
vn -0.0000 -0.9874 0.1583
vn -0.2688 -0.2607 -0.9272
vn -0.0116 -0.9914 0.1306
vn -0.1340 0.2506 0.9588
vn 0.2661 -0.0714 -0.9613
vn -0.0105 0.9736 -0.2281
vn 0.0083 -0.9804 0.1966
vn -0.0239 0.8478 -0.5297
vn -0.2989 -0.1210 -0.9466
vn 0.1090 0.1195 0.9868
vn 0.1044 0.5954 -0.7966
vn -0.0000 -0.3635 0.9316
vn -0.0000 -0.4133 -0.9106
vn -0.0542 -0.0000 -0.9985
vn -0.0000 0.4396 0.8982
vn -0.0000 0.9669 -0.2553
vn 0.0533 -0.0000 -0.9986
vn 0.0565 0.0091 0.9984
vn -0.0556 0.0090 0.9984
vn -0.0000 0.3556 -0.9346
vn 0.1023 0.3090 -0.9455
vn -0.9040 -0.4274 -0.0000
vn 0.8589 0.5122 -0.0000
vn -0.1386 0.2711 -0.9525
vn -0.0000 0.7444 -0.6678
vn 0.2673 0.8832 -0.3853
vn -0.3041 0.9363 -0.1755
vn -0.0000 0.8757 0.4828
vn -0.0064 -0.9860 0.1665
vn -0.0064 -0.9862 0.1654
vn -0.0065 -0.9875 0.1575
vn 0.0725 -0.1245 -0.9896
vn -0.8915 0.0049 0.4529
vn 0.9345 0.0766 -0.3476
vn 0.7432 -0.6498 -0.1593
vn -0.9526 0.1367 0.2717
vn 0.7539 -0.6312 -0.1823
vn -0.6973 -0.6295 0.3429
vn 0.8824 -0.0704 -0.4653
vn 0.7059 0.5857 -0.3983
vn 0.9802 0.0067 -0.1981
vn 0.0389 0.9716 -0.2335
vn 0.0192 0.9656 -0.2594
vn 0.0171 0.9658 -0.2586
vn 0.0855 0.9608 -0.2637
vn 0.0066 -0.9905 0.1372
vn 0.0091 -0.9895 0.1444
vn 0.0090 -0.9895 0.1442
vn -0.0175 -0.9862 0.1647
vn -0.0172 -0.9846 0.1740
vn -0.0172 -0.9848 0.1728
vn 0.1211 -0.1349 -0.9834
vn 0.0225 -0.1254 -0.9918
vn -0.0182 -0.9864 0.1636
vn -0.0181 -0.9864 0.1635
vn 0.0044 -0.9889 0.1488
vn 0.0052 -0.9897 0.1432
vn -0.0471 0.0383 0.9982
vn 0.0836 0.0437 0.9955
vn 0.0042 -0.9887 0.1501
vn -0.0184 -0.9863 0.1637
vn 0.0665 0.8664 -0.4949
vn 0.0261 0.8507 -0.5250
vn -0.9468 0.0739 0.3131
vn 0.9148 0.1360 -0.3802
vn -0.0719 0.9547 -0.2887
vn -0.0153 -0.9909 0.1340
vn -0.9995 0.0007 0.0309
vn 0.0301 0.9655 -0.2586
vn -0.0727 -0.9974 -0.0001
vn -0.0727 -0.9974 -0.0000
vn 0.8246 -0.0034 -0.5657
vn 0.9979 0.0588 -0.0286
vn -0.8196 0.5729 -0.0000
vn -0.8196 0.5729 -0.0008
vn -0.5665 -0.0047 -0.8240
vn -0.1376 0.0578 0.9888
vn 0.6146 -0.7888 0.0005
vn 0.2333 -0.9724 -0.0000
vn 0.2333 -0.9724 -0.0001
vn 0.1383 -0.2488 0.9586
vn -0.8128 0.5825 0.0007
vn 0.1415 0.9899 -0.0000
vn 0.1446 0.9895 -0.0000
vn 0.1515 0.9885 -0.0006
vn 0.3250 -0.3451 -0.8805
vn 0.3509 -0.3889 -0.8518
vn 0.3082 -0.0000 -0.9513
vn 0.3302 -0.0001 -0.9439
vn -0.2229 0.1538 0.9626
vn 0.1526 -0.9883 -0.0000
vn 0.1415 -0.9899 -0.0000
vn -0.2453 0.1857 0.9515
vn 0.0784 -0.9969 -0.0000
vn 0.0704 -0.9975 -0.0000
vn 0.9631 0.2693 -0.0000
vn -0.1582 0.3588 -0.9199
vn -0.9881 0.1541 -0.0000
vn 0.0947 -0.3398 0.9357
vn -0.0000 -0.0578 -0.9983
vn 0.9133 0.4063 -0.0294
vn -0.0000 -0.0217 -0.9998
vn -0.0000 0.3153 0.9490
vn 0.7341 0.1433 -0.6637
vn -0.0000 0.2807 0.9598
vn -0.9433 0.3173 -0.0971
vn -0.7196 0.4187 0.5539
vn 0.3500 -0.7901 -0.5033
vn -0.0000 -0.0000 -1.0000
vn 0.6632 -0.7484 -0.0000
vn 0.4050 -0.9141 -0.0225
vn -0.9952 -0.0000 -0.0975
vn 0.9952 -0.0000 -0.0975
vn -0.9962 0.0871 -0.0000
vn 0.0530 -0.3290 -0.9429
vn -0.4559 0.5234 0.7198
vn 0.3171 -0.3440 0.8838
vn -0.1300 0.5253 0.8410
vn -0.0000 -0.7110 0.7032
vn 0.0165 0.0594 -0.9981
vn -0.0000 0.9854 0.1704
vn -0.1088 0.1358 -0.9847
vn -0.9761 0.0896 0.1982
vn -0.0981 0.0443 -0.9942
vn -0.2244 -0.0000 0.9745
vn -0.0942 -0.1498 0.9842
vn -0.0221 -0.9906 -0.1348
vn -0.0186 -0.9908 -0.1344
vn -0.0158 -0.9909 -0.1340
vn 0.2989 -0.1210 0.9466
vn -0.0076 -0.9854 -0.1700
vn 0.7543 -0.0000 0.6565
vn -0.7366 0.6707 -0.0870
vn 0.0280 0.9658 0.2579
vn 0.0282 0.9657 0.2580
vn 0.0278 0.9658 0.2578
vn -0.2173 0.1507 -0.9644
vn 0.6311 -0.7083 0.3162
vn 0.3528 -0.0000 0.9357
vn -0.2412 -0.7287 0.6410
vn 0.0078 1.0000 -0.0030
vn -0.0002 1.0000 -0.0018
vn -0.0001 1.0000 -0.0011
vn 0.0001 1.0000 -0.0047
vn 0.0018 1.0000 -0.0082
vn 0.0081 0.9999 -0.0067
vn -0.2939 -0.0000 0.9558
vn 0.9972 -0.0717 0.0204
vn 0.9992 -0.0392 0.0011
vn 0.0290 0.9657 0.2582
vn 0.0299 0.9655 0.2585
vn -0.0282 0.9771 0.2111
vn 0.0095 0.8689 0.4948
vn -0.0214 -0.9877 -0.1546
vn -0.0068 -0.9876 -0.1566
vn -0.0067 -0.9877 -0.1565
vn -0.0070 -0.9876 -0.1566
vn 0.0107 0.9730 0.2308
vn 0.8742 0.1544 0.4603
vn -0.2652 -0.1070 0.9582
vn 0.1353 0.2712 -0.9530
vn 0.0113 -0.9917 -0.1279
vn -0.9748 -0.1582 0.1572
vn 0.8678 -0.3120 0.3868
vn 0.2663 -0.2926 0.9184
vn -0.0000 0.9990 0.0437
vn -0.9844 -0.0000 0.1760
vn 0.9015 -0.0000 0.4327
vn 0.9991 -0.0405 0.0143
vn 1.0000 -0.0000 0.0058
vn -0.6689 -0.6483 -0.3637
vn -0.9873 0.0315 -0.1557
vn -0.9997 -0.0195 -0.0171
vn -0.9995 0.0007 -0.0308
vn -0.9997 0.0003 -0.0241
vn -0.9997 0.0003 -0.0247
vn -0.0151 -0.9846 -0.1744
vn -0.0577 0.8719 0.4863
vn 0.3028 -0.0000 0.9530
vn -0.2174 0.2045 -0.9544
vn 0.2658 -0.2114 0.9406
vn -0.1505 0.0109 -0.9885
vn 0.3066 -0.4484 0.8396
vn 0.1487 0.9889 -0.0029
vn -0.1282 0.4220 -0.8975
vn 0.9888 -0.0000 0.1492
vn -0.9990 -0.0000 0.0447
vn 0.0447 -0.0000 0.9990
vn -0.0447 -0.0000 -0.9990
vn -0.0076 0.9854 -0.1700
vn -0.2508 -0.0000 0.9680
vn 0.3166 -0.0000 -0.9486
vn -0.1133 -0.9816 -0.1538
vn -0.3150 -0.0000 -0.9491
vn -0.9980 -0.0000 0.0637
vn -0.9991 -0.0000 0.0425
vn 0.1836 0.9700 0.1595
vn 0.3788 -0.0000 0.9255
vn -0.1133 0.9816 -0.1538
vn 0.1836 -0.9700 0.1595
vn -0.0819 -0.9814 0.1734
vn -0.1370 -0.0000 0.9906
vn -0.0819 0.9814 0.1734
vn -0.2249 -0.0000 -0.9744
vn -0.0399 -0.0000 0.9992
vn 0.0113 0.9999 -0.0059
vn 0.0027 0.9999 -0.0097
vn -0.3288 0.9048 0.2704
vn -0.1075 0.9217 0.3726
vn 0.0018 0.9999 -0.0101
vn -0.1262 0.3289 0.9359
vn -0.0000 -0.9854 0.1704
vn -0.0000 -0.9874 -0.1583
vn -0.2688 -0.2607 0.9272
vn -0.0116 -0.9914 -0.1306
vn -0.1340 0.2506 -0.9588
vn 0.2661 -0.0714 0.9613
vn -0.0105 0.9736 0.2281
vn 0.0083 -0.9804 -0.1966
vn -0.0239 0.8478 0.5297
vn -0.2989 -0.1210 0.9466
vn 0.1090 0.1195 -0.9868
vn 0.1044 0.5954 0.7966
vn -0.0000 -0.3634 -0.9316
vn -0.0000 -0.4132 0.9106
vn -0.0542 -0.0000 0.9985
vn -0.0000 0.4396 -0.8982
vn -0.0000 0.9669 0.2553
vn 0.0533 -0.0000 0.9986
vn 0.0565 0.0092 -0.9984
vn -0.0556 0.0090 -0.9984
vn -0.0000 0.3556 0.9347
vn 0.1023 0.3090 0.9455
vn -0.1386 0.2711 0.9525
vn -0.0000 0.7444 0.6678
vn 0.2673 0.8832 0.3853
vn -0.3041 0.9363 0.1755
vn -0.0000 0.8757 -0.4828
vn -0.0064 -0.9860 -0.1665
vn -0.0065 -0.9875 -0.1575
vn -0.0064 -0.9862 -0.1654
vn 0.0725 -0.1245 0.9896
vn -0.8915 0.0049 -0.4529
vn 0.9345 0.0766 0.3476
vn 0.7432 -0.6498 0.1593
vn -0.9526 0.1367 -0.2717
vn 0.7539 -0.6312 0.1822
vn -0.6973 -0.6295 -0.3429
vn 0.8824 -0.0704 0.4653
vn 0.7059 0.5857 0.3983
vn 0.9802 0.0067 0.1981
vn 0.0389 0.9716 0.2335
vn 0.0192 0.9656 0.2594
vn 0.0171 0.9658 0.2586
vn 0.0855 0.9608 0.2637
vn 0.0066 -0.9905 -0.1372
vn 0.0090 -0.9895 -0.1442
vn 0.0091 -0.9895 -0.1444
vn -0.0175 -0.9862 -0.1647
vn -0.0172 -0.9848 -0.1728
vn -0.0172 -0.9846 -0.1740
vn 0.1211 -0.1349 0.9834
vn 0.0225 -0.1254 0.9918
vn -0.0183 -0.9864 -0.1636
vn -0.0181 -0.9864 -0.1635
vn 0.0044 -0.9889 -0.1488
vn 0.0052 -0.9897 -0.1432
vn -0.0471 0.0383 -0.9982
vn 0.0836 0.0437 -0.9955
vn 0.0042 -0.9887 -0.1501
vn -0.0184 -0.9863 -0.1637
vn 0.0665 0.8664 0.4949
vn 0.0261 0.8507 0.5250
vn -0.9468 0.0739 -0.3131
vn 0.9148 0.1360 0.3802
vn -0.0719 0.9547 0.2887
vn -0.0153 -0.9909 -0.1340
vn -0.9995 0.0007 -0.0309
vn 0.0301 0.9655 0.2586
vn -0.0727 -0.9974 0.0001
vn 0.8246 -0.0034 0.5657
vn 0.9979 0.0588 0.0286
vn -0.8196 0.5729 0.0008
vn -0.5665 -0.0047 0.8240
vn -0.1376 0.0578 -0.9888
vn 0.6146 -0.7889 -0.0005
vn 0.2333 -0.9724 0.0001
vn 0.1383 -0.2488 -0.9586
vn -0.8128 0.5825 -0.0007
vn 0.1515 0.9885 0.0006
vn 0.3250 -0.3451 0.8805
vn 0.3509 -0.3889 0.8518
vn 0.3082 -0.0000 0.9513
vn 0.3302 -0.0001 0.9439
vn -0.2229 0.1538 -0.9626
vn -0.2453 0.1857 -0.9515
vn -0.1582 0.3588 0.9199
vn 0.0947 -0.3398 -0.9357
vn -0.0000 -0.0578 0.9983
vn 0.9133 0.4063 0.0294
vn -0.0000 -0.0217 0.9998
vn -0.0000 0.3153 -0.9490
vn 0.7341 0.1433 0.6637
vn -0.0000 0.2807 -0.9598
vn -0.9433 0.3173 0.0971
vn -0.7196 0.4187 -0.5539
vn 0.3500 -0.7901 0.5033
vn 0.4050 -0.9141 0.0225
vn -0.9952 -0.0000 0.0975
vn 0.9952 -0.0000 0.0975
vt 0.168527 0.859017
vt 0.170413 0.860317
vt 0.164758 0.872466
vt 0.164320 0.871434
vt 0.188780 0.832415
vt 0.184787 0.832864
vt 0.174938 0.832854
vt 0.188716 0.854249
vt 0.155149 0.854179
vt 0.155335 0.855169
vt 0.174889 0.855211
vt 0.169154 0.843833
vt 0.168810 0.830473
vt 0.168297 0.832594
vt 0.168574 0.843847
vt 0.166880 0.845414
vt 0.163567 0.845408
vt 0.162623 0.837440
vt 0.163947 0.837442
vt 0.181131 0.159189
vt 0.181185 0.130083
vt 0.181698 0.129818
vt 0.181687 0.158407
vt 0.275405 0.446144
vt 0.235656 0.442893
vt 0.215165 0.570453
vt 0.244581 0.587058
vt 0.177025 0.824426
vt 0.182100 0.829449
vt 0.188266 0.832187
vt 0.182283 0.826265
vt 0.260522 0.142967
vt 0.260969 0.160728
vt 0.260042 0.161013
vt 0.259589 0.143114
vt 0.193574 0.847928
vt 0.199506 0.852290
vt 0.216832 0.847905
vt 0.210939 0.845030
vt 0.247974 0.830545
vt 0.247071 0.829975
vt 0.238330 0.763269
vt 0.239152 0.762808
vt 0.254320 0.832447
vt 0.247749 0.834065
vt 0.264724 0.901042
vt 0.266188 0.900722
vt 0.230236 0.832472
vt 0.230538 0.841233
vt 0.227761 0.834135
vt 0.227588 0.830914
vt 0.170702 0.843156
vt 0.170696 0.846112
vt 0.174462 0.844644
vt 0.153958 0.824414
vt 0.153649 0.828692
vt 0.170730 0.828705
vt 0.182053 0.847745
vt 0.174491 0.831487
vt 0.170724 0.831665
vt 0.253886 0.828897
vt 0.239011 0.829446
vt 0.239242 0.830563
vt 0.235040 0.829797
vt 0.262628 0.829368
vt 0.263075 0.833032
vt 0.261291 0.833643
vt 0.260830 0.829861
vt 0.562800 0.860493
vt 0.588900 0.847077
vt 0.592510 0.849236
vt 0.565088 0.863326
vt 0.196666 0.852198
vt 0.196728 0.833628
vt 0.221645 0.837467
vt 0.221606 0.845920
vt 0.271369 0.838378
vt 0.279112 0.836116
vt 0.277335 0.836208
vt 0.270596 0.838175
vt 0.277499 0.147395
vt 0.283604 0.142470
vt 0.282823 0.142605
vt 0.276681 0.147567
vt 0.178146 0.158404
vt 0.179096 0.129813
vt 0.178756 0.130078
vt 0.177766 0.159204
vt 0.169357 0.830240
vt 0.169743 0.843346
vt 0.169101 0.843478
vt 0.168789 0.832414
vt 0.166871 0.850649
vt 0.156379 0.850629
vt 0.156386 0.845397
vt 0.184727 0.855232
vt 0.496572 0.859436
vt 0.524200 0.859406
vt 0.512277 0.846265
vt 0.496089 0.846279
vt 0.153646 0.831650
vt 0.153633 0.843130
vt 0.153630 0.846084
vt 0.155088 0.826248
vt 0.181917 0.850398
vt 0.179734 0.853731
vt 0.188204 0.853749
vt 0.169184 0.159217
vt 0.169212 0.158421
vt 0.155175 0.832383
vt 0.155361 0.832835
vt 0.153909 0.847527
vt 0.173276 0.847561
vt 0.512288 0.812344
vt 0.509544 0.818092
vt 0.509538 0.840526
vt 0.524233 0.801656
vt 0.496573 0.801655
vt 0.496089 0.812347
vt 0.510437 0.818621
vt 0.510430 0.841920
vt 0.496089 0.818096
vt 0.496089 0.840536
vt 0.496463 0.818626
vt 0.496463 0.841931
vt 0.170120 0.586545
vt 0.172815 0.554840
vt 0.247344 0.555253
vt 0.174750 0.443753
vt 0.276996 0.443840
vt 0.166809 0.442837
vt 0.167530 0.570158
vt 0.188567 0.854104
vt 0.155122 0.854034
vt 0.155124 0.853380
vt 0.187982 0.853447
vt 0.155173 0.833018
vt 0.188180 0.833050
vt 0.182583 0.830623
vt 0.188631 0.832349
vt 0.188041 0.832986
vt 0.155150 0.830600
vt 0.155150 0.831338
vt 0.269311 0.154000
vt 0.268439 0.154227
vt 0.235411 0.831088
vt 0.239106 0.839134
vt 0.246942 0.841274
vt 0.255162 0.835539
vt 0.248620 0.836980
vt 0.238626 0.831228
vt 0.268704 0.139070
vt 0.267827 0.139186
vt 0.265626 0.901711
vt 0.266542 0.902391
vt 0.267819 0.901913
vt 0.267360 0.901315
vt 0.240031 0.762973
vt 0.241588 0.762559
vt 0.254528 0.831163
vt 0.239988 0.762339
vt 0.241527 0.762144
vt 0.216833 0.841674
vt 0.224925 0.844893
vt 0.238619 0.843873
vt 0.216799 0.834464
vt 0.224897 0.836843
vt 0.238331 0.834268
vt 0.289823 0.840690
vt 0.289426 0.839215
vt 0.293403 0.838810
vt 0.293645 0.840094
vt 0.284772 0.842369
vt 0.284486 0.839671
vt 0.278558 0.831551
vt 0.270574 0.833101
vt 0.269905 0.833589
vt 0.276853 0.832238
vt 0.230839 0.830196
vt 0.231109 0.832929
vt 0.181111 0.176228
vt 0.181645 0.176797
vt 0.180637 0.827982
vt 0.173233 0.827977
vt 0.166791 0.841848
vt 0.167138 0.829710
vt 0.163364 0.835117
vt 0.164358 0.835118
vt 0.167213 0.831032
vt 0.164800 0.831030
vt 0.171957 0.841856
vt 0.170933 0.829713
vt 0.166773 0.851939
vt 0.171936 0.851949
vt 0.156095 0.841833
vt 0.179595 0.182461
vt 0.188416 0.196272
vt 0.187359 0.191422
vt 0.179329 0.178518
vt 0.173816 0.853480
vt 0.155367 0.853442
vt 0.156042 0.850369
vt 0.166424 0.850389
vt 0.169241 0.182511
vt 0.169288 0.178562
vt 0.169802 0.196395
vt 0.169792 0.191527
vt 0.189355 0.846524
vt 0.189401 0.830721
vt 0.190355 0.831237
vt 0.212654 0.835120
vt 0.213615 0.834936
vt 0.212624 0.842284
vt 0.213583 0.842474
vt 0.190310 0.846015
vt 0.565170 0.804249
vt 0.592570 0.818436
vt 0.562876 0.804255
vt 0.588954 0.817759
vt 0.554663 0.794639
vt 0.554577 0.868295
vt 0.557999 0.796968
vt 0.557911 0.867461
vt 0.549660 0.879582
vt 0.549763 0.783295
vt 0.592916 0.850730
vt 0.592991 0.812322
vt 0.597838 0.854848
vt 0.597933 0.808216
vt 0.593185 0.849338
vt 0.593251 0.815216
vt 0.224484 0.152661
vt 0.204283 0.142824
vt 0.204602 0.143524
vt 0.223981 0.152961
vt 0.224530 0.171110
vt 0.224024 0.170658
vt 0.204302 0.181019
vt 0.204622 0.180162
vt 0.186802 0.146243
vt 0.171250 0.146244
vt 0.171269 0.145839
vt 0.186674 0.145838
vt 0.186766 0.175826
vt 0.186637 0.176094
vt 0.171169 0.175888
vt 0.171186 0.176155
vt 0.178726 0.847548
vt 0.176029 0.847544
vt 0.172590 0.846261
vt 0.173779 0.846263
vt 0.166290 0.872471
vt 0.165010 0.871436
vt 0.169469 0.859020
vt 0.172528 0.860322
vt 0.246490 0.832704
vt 0.224391 0.837093
vt 0.216970 0.834875
vt 0.214033 0.835310
vt 0.221418 0.837663
vt 0.214003 0.842263
vt 0.217002 0.841525
vt 0.224418 0.844452
vt 0.232182 0.153894
vt 0.225717 0.152939
vt 0.228359 0.151767
vt 0.234898 0.152540
vt 0.232248 0.174105
vt 0.235022 0.171767
vt 0.225764 0.170854
vt 0.228463 0.168887
vt 0.221382 0.845389
vt 0.193343 0.194071
vt 0.196095 0.189270
vt 0.195614 0.193572
vt 0.192999 0.197418
vt 0.188757 0.185372
vt 0.170935 0.185464
vt 0.170931 0.189375
vt 0.188201 0.189277
vt 0.170030 0.194218
vt 0.170029 0.197573
vt 0.212033 0.844594
vt 0.218779 0.847784
vt 0.198352 0.852967
vt 0.191821 0.847968
vt 0.283048 0.132015
vt 0.276743 0.135242
vt 0.275920 0.135328
vt 0.282263 0.132079
vt 0.250183 0.836781
vt 0.250533 0.848654
vt 0.252529 0.843448
vt 0.252204 0.836787
vt 0.259976 0.844990
vt 0.249437 0.848098
vt 0.251557 0.843360
vt 0.260713 0.840684
vt 0.259406 0.834743
vt 0.269603 0.832903
vt 0.269065 0.833412
vt 0.260196 0.835015
vt 0.261004 0.845568
vt 0.261614 0.840797
vt 0.277634 0.831344
vt 0.276063 0.832052
vt 0.260445 0.834929
vt 0.261105 0.835179
vt 0.278192 0.835941
vt 0.276549 0.836055
vt 0.270404 0.838219
vt 0.269763 0.838039
vt 0.249075 0.836608
vt 0.251224 0.836637
vt 0.279728 0.843553
vt 0.279548 0.840374
vt 0.165007 0.843832
vt 0.156259 0.843817
vt 0.156246 0.843831
vt 0.165096 0.843846
vt 0.169716 0.851336
vt 0.169079 0.850196
vt 0.156211 0.851360
vt 0.156208 0.850171
vt 0.156249 0.851219
vt 0.169152 0.851243
vt 0.168572 0.850062
vt 0.156237 0.850040
vt 0.169134 0.176279
vt 0.169157 0.176845
vt 0.165805 0.830470
vt 0.165766 0.832592
vt 0.166141 0.830237
vt 0.166075 0.832411
vt 0.156208 0.843321
vt 0.165385 0.843334
vt 0.165438 0.843468
vt 0.156215 0.843455
vt 0.156083 0.851918
vt 0.216783 0.845730
vt 0.210748 0.842974
vt 0.191857 0.846008
vt 0.211506 0.842723
vt 0.198186 0.850568
vt 0.222796 0.172328
vt 0.228047 0.175287
vt 0.229146 0.174889
vt 0.223490 0.171808
vt 0.211498 0.185616
vt 0.210739 0.186391
vt 0.206634 0.180246
vt 0.205654 0.180546
vt 0.217990 0.845624
vt 0.198968 0.850171
vt 0.192951 0.845949
vt 0.155056 0.853680
vt 0.170149 0.134039
vt 0.201011 0.138359
vt 0.201114 0.138331
vt 0.170117 0.138302
vt 0.201021 0.192775
vt 0.201125 0.192965
vt 0.169980 0.192966
vt 0.169960 0.193158
vt 0.188120 0.853582
vt 0.155149 0.853514
vt 0.138827 0.858948
vt 0.142953 0.871370
vt 0.142732 0.872399
vt 0.137295 0.860237
vt 0.121687 0.832352
vt 0.135824 0.832816
vt 0.126026 0.832806
vt 0.121700 0.854109
vt 0.135821 0.855127
vt 0.143380 0.843793
vt 0.143933 0.843808
vt 0.143853 0.832571
vt 0.143299 0.830451
vt 0.145903 0.845379
vt 0.148899 0.837423
vt 0.150222 0.837425
vt 0.149210 0.845385
vt 0.157200 0.159231
vt 0.156695 0.158449
vt 0.157164 0.129768
vt 0.157634 0.130036
vt 0.065943 0.445943
vt 0.096123 0.586036
vt 0.120086 0.569864
vt 0.098360 0.442780
vt 0.130947 0.824401
vt 0.127970 0.826231
vt 0.122010 0.832125
vt 0.125887 0.829405
vt 0.076429 0.142906
vt 0.077524 0.143058
vt 0.076944 0.161386
vt 0.075856 0.161098
vt 0.114653 0.847789
vt 0.097486 0.844848
vt 0.092848 0.847687
vt 0.110414 0.852113
vt 0.061469 0.830386
vt 0.070154 0.763259
vt 0.070843 0.763711
vt 0.061899 0.829823
vt 0.054818 0.832258
vt 0.043257 0.899720
vt 0.044680 0.900050
vt 0.061227 0.833872
vt 0.078366 0.832327
vt 0.079864 0.830786
vt 0.079687 0.833981
vt 0.078051 0.841018
vt 0.136595 0.843105
vt 0.132846 0.844578
vt 0.136594 0.846055
vt 0.136598 0.828679
vt 0.125894 0.847646
vt 0.132846 0.831449
vt 0.136597 0.831634
vt 0.068397 0.830418
vt 0.068627 0.829310
vt 0.055251 0.828745
vt 0.072531 0.829665
vt 0.047095 0.829198
vt 0.049279 0.829688
vt 0.048820 0.833428
vt 0.046650 0.832820
vt 0.431620 0.860641
vt 0.430425 0.863485
vt 0.402865 0.849407
vt 0.405393 0.847234
vt 0.113594 0.852033
vt 0.088300 0.845699
vt 0.088280 0.837305
vt 0.113575 0.833544
vt 0.041467 0.838090
vt 0.042219 0.837891
vt 0.035573 0.835932
vt 0.033832 0.835837
vt 0.058690 0.147450
vt 0.059670 0.147627
vt 0.053255 0.142518
vt 0.052311 0.142378
vt 0.160256 0.158434
vt 0.160583 0.159235
vt 0.160076 0.130041
vt 0.159782 0.129773
vt 0.142662 0.830218
vt 0.143307 0.832389
vt 0.143347 0.843439
vt 0.142693 0.843305
vt 0.145899 0.850609
vt 0.126033 0.855106
vt 0.479891 0.846292
vt 0.468914 0.859467
vt 0.122022 0.853612
vt 0.130441 0.853630
vt 0.127030 0.850294
vt 0.134581 0.847493
vt 0.482633 0.840546
vt 0.482627 0.818100
vt 0.479880 0.812349
vt 0.468882 0.801653
vt 0.482488 0.841941
vt 0.482482 0.818629
vt 0.098751 0.554429
vt 0.073378 0.443665
vt 0.121793 0.853965
vt 0.122377 0.853313
vt 0.122280 0.832985
vt 0.127795 0.830576
vt 0.122366 0.832921
vt 0.121781 0.832286
vt 0.067212 0.154226
vt 0.068245 0.154457
vt 0.072163 0.830944
vt 0.069665 0.838914
vt 0.060818 0.836757
vt 0.054896 0.835317
vt 0.063050 0.841015
vt 0.070152 0.831078
vt 0.067936 0.138901
vt 0.068976 0.139022
vt 0.043897 0.900704
vt 0.042199 0.900297
vt 0.041837 0.900884
vt 0.043101 0.901368
vt 0.067756 0.763025
vt 0.069180 0.763427
vt 0.067921 0.762613
vt 0.069452 0.762798
vt 0.055535 0.830987
vt 0.091501 0.841494
vt 0.071327 0.843615
vt 0.084985 0.844669
vt 0.091551 0.834332
vt 0.071636 0.834094
vt 0.085032 0.836678
vt 0.026939 0.840328
vt 0.023224 0.839730
vt 0.023458 0.838465
vt 0.027330 0.838874
vt 0.031853 0.841999
vt 0.032138 0.839337
vt 0.034380 0.831331
vt 0.036050 0.832012
vt 0.042914 0.833360
vt 0.042265 0.832877
vt 0.076663 0.830068
vt 0.076392 0.832778
vt 0.157120 0.176323
vt 0.156628 0.176899
vt 0.137558 0.827951
vt 0.130187 0.827946
vt 0.145411 0.841817
vt 0.144725 0.829692
vt 0.148474 0.835101
vt 0.149466 0.835102
vt 0.145066 0.831013
vt 0.147474 0.831015
vt 0.140940 0.829689
vt 0.140260 0.841810
vt 0.140256 0.851887
vt 0.145404 0.851897
vt 0.158859 0.182561
vt 0.159220 0.178605
vt 0.152145 0.191632
vt 0.151098 0.196518
vt 0.136953 0.853405
vt 0.145671 0.850349
vt 0.118639 0.830660
vt 0.118651 0.846405
vt 0.117693 0.831172
vt 0.094680 0.834808
vt 0.095628 0.834992
vt 0.094695 0.842298
vt 0.095642 0.842113
vt 0.117705 0.845895
vt 0.430347 0.804249
vt 0.402807 0.818489
vt 0.431547 0.804254
vt 0.405339 0.817808
vt 0.439183 0.868443
vt 0.439098 0.794616
vt 0.436329 0.796949
vt 0.444011 0.783250
vt 0.444112 0.879741
vt 0.436414 0.867615
vt 0.400653 0.850909
vt 0.400579 0.812352
vt 0.395701 0.855053
vt 0.395606 0.808231
vt 0.400968 0.849511
vt 0.400902 0.815258
vt 0.116757 0.152762
vt 0.117311 0.153065
vt 0.137202 0.143507
vt 0.137493 0.142801
vt 0.116605 0.171471
vt 0.117167 0.171009
vt 0.137259 0.181329
vt 0.136977 0.180467
vt 0.155636 0.146246
vt 0.155802 0.145840
vt 0.155509 0.175949
vt 0.155673 0.176217
vt 0.129132 0.847462
vt 0.131815 0.847467
vt 0.134761 0.846198
vt 0.133577 0.846196
vt 0.142265 0.871368
vt 0.141204 0.872395
vt 0.137888 0.858946
vt 0.135187 0.860232
vt 0.063519 0.832527
vt 0.091435 0.834739
vt 0.085464 0.836927
vt 0.088433 0.837501
vt 0.094322 0.835178
vt 0.094336 0.842088
vt 0.085420 0.844233
vt 0.091390 0.841346
vt 0.107690 0.154031
vt 0.104922 0.152660
vt 0.112721 0.151862
vt 0.115444 0.153047
vt 0.107505 0.174572
vt 0.104683 0.172215
vt 0.112516 0.169241
vt 0.115294 0.171220
vt 0.088451 0.845173
vt 0.146575 0.194366
vt 0.146920 0.197729
vt 0.145260 0.193887
vt 0.144787 0.189562
vt 0.153031 0.185557
vt 0.153583 0.189474
vt 0.096329 0.844411
vt 0.090991 0.847560
vt 0.111703 0.852792
vt 0.116312 0.847835
vt 0.052966 0.131607
vt 0.053915 0.131676
vt 0.060543 0.135040
vt 0.059556 0.134949
vt 0.062441 0.836560
vt 0.060425 0.836561
vt 0.060085 0.843155
vt 0.062064 0.848316
vt 0.052543 0.844658
vt 0.051836 0.840396
vt 0.060899 0.843071
vt 0.062979 0.847769
vt 0.053133 0.834523
vt 0.052361 0.834790
vt 0.043595 0.833186
vt 0.043054 0.832683
vt 0.051697 0.845226
vt 0.051093 0.840506
vt 0.036683 0.831829
vt 0.035123 0.831128
vt 0.052277 0.834705
vt 0.051612 0.834950
vt 0.036200 0.835782
vt 0.034569 0.835666
vt 0.042894 0.837757
vt 0.042249 0.837934
vt 0.061245 0.836415
vt 0.063366 0.836391
vt 0.036767 0.843182
vt 0.036950 0.840044
vt 0.147518 0.843805
vt 0.147404 0.843818
vt 0.143354 0.850147
vt 0.142702 0.851284
vt 0.143918 0.850016
vt 0.143363 0.851194
vt 0.146298 0.830454
vt 0.146378 0.832573
vt 0.145870 0.830220
vt 0.146015 0.832392
vt 0.147002 0.843440
vt 0.147040 0.843306
vt 0.097663 0.842804
vt 0.092915 0.845527
vt 0.096876 0.842552
vt 0.116302 0.845882
vt 0.111838 0.850404
vt 0.118252 0.172694
vt 0.117572 0.172172
vt 0.110733 0.175344
vt 0.111890 0.175739
vt 0.129158 0.186826
vt 0.128455 0.186050
vt 0.134758 0.180571
vt 0.135786 0.180865
vt 0.091756 0.845417
vt 0.110979 0.850006
vt 0.115258 0.845820
vt 0.138868 0.138273
vt 0.139013 0.138302
vt 0.138541 0.193352
vt 0.138688 0.193159
vt 0.122291 0.853447
s 1
usemtl M_SpaceShip_01
f 253/1/1 252/2/1 150/3/1 152/4/1
f 64/5/2 1/6/2 35/7/2
f 61/8/3 62/9/3 8/10/3 37/11/3
f 237/12/4 242/13/4 227/14/4 228/15/4
f 10/16/5 38/17/5 97/18/5 98/19/5
f 228/20/6 227/21/6 226/22/6 229/23/6
f 183/24/7 179/25/7 59/26/7 159/27/7
f 36/28/8 3/29/8 13/30/8 40/31/8
f 187/32/9 205/33/9 204/34/9 186/35/9
f 123/36/10 115/37/10 20/38/10 121/39/10
f 161/40/11 67/41/11 76/42/11 165/43/11
f 21/44/12 68/45/12 72/46/12 69/47/12
f 80/48/13 78/49/13 92/50/13 91/51/13
f 44/52/14 149/53/14 31/54/14
f 36/28/15 5/55/15 28/56/15 42/57/15
f 29/58/16 3/29/16 27/59/16 31/54/16
f 42/57/14 43/60/14 27/59/14
f 43/60/14 44/52/14 31/54/14 27/59/14
f 21/44/17 22/61/17 87/62/17 89/63/17
f 22/61/18 67/41/19 88/64/20 87/62/18
f 155/65/21 156/66/21 24/67/21 23/68/21
f 116/69/22 17/70/22 127/71/22 126/72/22
f 119/73/23 114/74/23 19/75/23 30/76/23
f 191/77/24 200/78/24 188/79/24 207/80/24
f 207/81/25 188/82/26 189/83/26 206/84/27
f 232/85/28 231/86/28 230/87/28 233/88/28
f 243/89/29 236/90/29 229/91/29 226/92/29
f 38/17/30 9/93/30 12/94/30 11/95/30
f 64/5/31 61/8/31 2/96/31 1/6/31
f 10/16/30 9/93/30 38/17/30
f 146/97/32 145/98/32 48/99/32 45/100/32
f 28/56/14 33/101/14 43/60/14 42/57/14
f 3/29/33 36/28/33 42/57/33 27/59/33
f 32/102/14 25/103/14 149/53/14 44/52/14
f 5/55/2 36/28/2 40/31/2 16/104/2
f 29/58/34 157/105/35 39/106/36 14/107/37
f 233/88/38 248/108/38 249/109/38 232/85/38
f 61/8/3 37/11/3 2/96/3
f 63/110/2 64/5/2 35/7/2 7/111/2
f 6/112/39 148/113/40 149/53/41 25/103/39
f 48/99/14 47/114/14 51/115/14 52/116/14
f 145/98/42 147/117/42 47/114/42 48/99/42
f 147/117/43 144/118/43 46/119/43 47/114/43
f 52/116/44 51/115/44 55/120/44 56/121/44
f 47/114/14 46/119/14 50/122/14 51/115/14
f 45/100/14 48/99/14 52/116/14 49/123/14
f 54/124/14 53/125/14 56/121/14 55/120/14
f 51/115/3 50/122/3 54/124/3 55/120/3
f 49/123/2 52/116/2 56/121/2 53/125/2
f 159/27/45 158/126/45 58/127/45 60/128/45
f 181/129/46 180/130/46 60/128/46 58/127/46
f 179/25/47 182/131/47 57/132/47 59/26/47
f 267/133/48 268/134/48 273/135/48 271/136/48
f 64/5/49 63/110/49 276/137/49 278/138/49
f 270/139/50 266/140/50 277/141/50
f 269/142/51 270/139/52 277/141/52 275/143/51
f 219/144/53 207/81/25 206/84/27 218/145/54
f 68/45/55 21/44/55 89/63/55 90/146/55
f 212/147/56 211/148/56 66/149/56 160/150/56
f 209/151/57 67/41/57 161/40/57
f 210/152/58 187/32/59 186/35/59 217/153/60
f 163/154/61 71/155/61 70/156/61 162/157/61
f 66/149/62 24/67/62 70/156/62 71/155/62
f 156/66/63 21/44/63 69/47/63 162/157/63
f 160/150/64 66/149/64 71/155/64 163/154/64
f 165/43/65 76/42/65 74/158/65 164/159/65
f 67/41/66 22/61/66 74/158/66 76/42/66
f 23/68/67 65/160/67 75/161/67 73/162/67
f 155/65/68 23/68/68 73/162/68 164/159/68
f 168/163/69 167/164/69 77/165/69 78/49/69
f 170/166/70 168/163/70 78/49/70 80/48/70
f 167/164/71 169/167/71 79/168/71 77/165/71
f 84/169/72 82/170/72 81/171/72 83/172/72
f 214/173/73 213/174/73 82/170/73 84/169/73
f 193/175/74 196/176/74 202/177/74 184/178/74
f 200/78/75 193/175/75 184/178/75 188/79/75
f 88/64/76 90/146/76 89/63/76 87/62/76
f 215/179/77 216/180/78 90/146/79 88/64/79
f 209/151/80 80/48/80 91/51/80 215/179/80
f 212/147/81 68/45/81 90/146/81 216/180/81
f 224/181/82 228/20/82 229/23/82 225/182/82
f 35/7/83 1/6/83 94/183/83 93/184/83
f 105/185/84 35/7/84 93/184/84 108/186/84
f 98/19/85 97/18/85 99/187/85 100/188/85
f 96/189/86 10/16/86 98/19/86 100/188/86
f 95/190/87 96/189/87 100/188/87 99/187/87
f 38/17/88 95/190/88 99/187/88 97/18/88
f 227/21/89 230/87/89 231/86/89 226/22/89
f 1/6/90 103/191/90 107/192/90 94/183/90
f 93/184/91 94/183/91 107/192/91 108/186/91
f 2/96/92 37/11/92 106/193/93 102/194/94
f 7/111/38 35/7/38 105/185/95 104/195/96
f 1/6/82 2/96/82 102/194/82 103/191/82
f 106/196/97 37/197/97 109/198/97 112/199/97
f 109/200/92 110/201/92 111/202/92 112/203/92
f 101/204/98 106/196/98 112/199/98 111/205/98
f 37/197/99 8/206/99 110/207/99 109/198/99
f 14/107/100 13/30/100 114/74/100 119/73/100
f 3/29/101 29/58/101 118/208/101 117/209/101
f 29/58/10 14/107/10 119/73/10 118/208/10
f 129/210/101 128/211/101 120/212/101 117/209/101
f 128/211/101 130/213/101 122/214/101 120/212/101
f 130/213/101 131/215/101 118/208/101 122/214/101
f 131/215/101 129/210/101 117/209/101 118/208/101
f 124/216/101 126/72/101 127/71/101 125/217/101
f 113/218/102 116/69/102 126/72/102 124/216/102
f 17/70/103 18/219/103 125/217/103 127/71/103
f 18/219/104 113/218/104 124/216/104 125/217/104
f 116/69/105 113/218/105 133/220/105 135/221/105
f 142/222/106 140/223/106 139/224/106 137/225/106
f 17/70/107 116/69/107 135/221/107 134/226/107
f 18/219/108 17/70/108 134/226/108 132/227/108
f 135/221/109 133/220/109 137/225/109 139/224/109
f 134/226/110 135/221/110 139/224/110 138/228/110
f 132/227/109 134/226/109 138/228/109 136/229/109
f 133/220/110 132/227/110 136/229/110 137/225/110
f 140/223/111 143/230/111 138/228/111 139/224/111
f 143/230/112 141/231/112 136/229/112 138/228/112
f 113/218/113 18/219/113 132/227/113 133/220/113
f 141/231/114 142/222/114 137/225/114 136/229/114
f 128/232/115 129/233/115 142/234/115 141/235/115
f 130/236/116 128/232/116 141/235/116 143/237/116
f 131/238/117 130/236/117 143/237/117 140/239/117
f 129/233/118 131/238/118 140/239/118 142/234/118
f 43/240/119 33/241/119 144/242/119 147/243/119
f 44/244/120 43/240/120 147/243/120 145/245/120
f 32/246/121 44/244/121 145/245/121 146/247/121
f 4/248/122 34/249/123 148/113/40 29/58/34
f 41/250/124 26/251/124 31/54/124 149/53/124
f 26/251/125 4/248/125 29/58/125 31/54/125
f 34/249/123 41/250/126 149/53/41 148/113/40
f 150/3/3 151/252/3 153/253/3 152/4/3
f 254/254/127 253/1/127 152/4/127 153/253/127
f 255/255/128 254/254/128 153/253/128 151/252/128
f 252/2/129 255/255/129 151/252/129 150/3/129
f 13/30/130 3/29/130 117/209/130 114/74/130
f 169/167/131 170/166/131 80/48/131 79/168/131
f 22/61/132 155/65/132 164/159/132 74/158/132
f 75/161/133 165/43/133 164/159/133 73/162/133
f 68/45/134 160/150/134 163/154/134 72/46/134
f 24/67/135 156/66/135 162/157/135 70/156/135
f 72/46/136 163/154/136 162/157/136 69/47/136
f 208/256/137 209/151/137 161/40/137 65/160/137
f 212/147/138 160/150/138 68/45/138
f 59/26/3 57/132/3 158/126/3 159/27/3
f 29/58/34 148/113/40 157/105/35
f 22/61/139 21/44/139 156/66/139 155/65/139
f 65/160/140 161/40/140 165/43/140 75/161/140
f 114/74/130 117/209/130 120/212/130 19/75/130
f 180/130/141 183/24/141 159/27/141 60/128/141
f 170/166/142 169/167/142 177/257/142 178/258/142
f 19/75/143 120/212/143 171/259/143 174/260/143
f 120/212/144 122/214/144 172/261/144 171/259/144
f 167/164/145 168/163/145 176/262/145 175/263/145
f 174/264/131 171/265/131 178/266/131 177/267/131
f 173/268/71 174/264/71 177/267/71 175/269/71
f 171/265/70 172/270/70 176/271/70 178/266/70
f 172/270/146 173/268/146 175/269/146 176/271/146
f 30/76/147 19/75/147 174/260/147 173/272/147
f 169/167/148 167/164/148 175/263/148 177/257/148
f 168/163/149 170/166/149 178/258/149 176/262/149
f 122/214/150 30/76/150 173/272/150 172/261/150
f 39/273/151 157/274/151 183/275/151 180/276/151
f 148/277/152 6/278/152 182/279/152 179/280/152
f 15/281/153 39/273/153 180/276/153 181/282/153
f 157/274/154 148/277/154 179/280/154 183/275/154
f 154/283/155 256/284/155 30/76/155 122/214/155
f 256/284/156 257/285/156 119/73/156 30/76/156
f 166/286/157 154/283/157 122/214/157 118/208/157
f 257/285/158 166/286/158 118/208/158 119/73/158
f 184/287/159 202/288/160 203/289/161 185/290/159
f 188/82/162 184/287/162 185/290/162 189/83/162
f 195/291/163 199/292/163 205/293/163 187/294/163
f 223/295/164 198/296/164 204/297/164 218/298/164
f 221/299/165 197/300/165 203/301/165 217/302/165
f 222/303/166 191/77/166 207/80/166 219/304/166
f 197/300/167 192/305/167 185/306/167 203/301/167
f 220/307/168 195/291/168 187/294/168 210/308/168
f 192/305/169 201/309/169 189/310/169 185/306/169
f 201/309/170 190/311/170 206/312/170 189/310/170
f 198/296/171 194/313/171 186/314/171 204/297/171
f 200/78/172 191/77/172 84/169/172 83/172/172
f 211/148/173 77/165/173 198/296/173 223/295/173
f 24/67/174 66/149/174 190/311/174 201/309/174
f 222/303/175 199/292/175 86/315/175 214/173/175
f 196/176/176 193/175/177 81/171/177 82/170/178
f 65/160/179 23/68/180 192/305/180 197/300/181
f 193/175/182 200/78/182 83/172/182 81/171/182
f 23/68/183 24/67/183 201/309/183 192/305/183
f 208/256/184 65/160/179 197/300/181 221/299/185
f 220/307/186 196/176/176 82/170/178 213/174/187
f 77/165/188 79/168/188 194/313/188 198/296/188
f 199/292/189 195/291/189 85/316/189 86/315/189
f 195/291/190 220/307/186 213/174/187 85/316/190
f 79/168/191 208/256/184 221/299/185 194/313/191
f 191/77/192 222/303/192 214/173/192 84/169/192
f 66/149/193 211/148/193 223/295/193 190/311/193
f 196/176/168 220/307/168 210/308/168 202/177/168
f 199/292/194 222/303/194 219/304/194 205/293/194
f 194/313/165 221/299/165 217/302/165 186/314/165
f 190/311/195 223/295/195 218/298/195 206/312/195
f 79/168/131 80/48/131 209/151/131 208/256/131
f 78/49/196 212/147/196 216/180/196 92/50/196
f 67/41/19 209/151/197 215/179/197 88/64/20
f 91/51/198 92/50/198 216/180/78 215/179/77
f 86/315/73 85/316/73 213/174/73 214/173/73
f 202/288/160 210/152/58 217/153/60 203/289/161
f 78/49/146 77/165/146 211/148/146 212/147/146
f 205/33/199 219/144/53 218/145/54 204/34/199
f 240/317/200 247/318/201 248/319/201 233/320/200
f 236/90/202 238/321/202 225/322/202 229/91/202
f 238/321/203 235/323/203 250/324/203 225/322/203
f 234/325/204 239/326/205 224/327/205 251/328/204
f 251/329/92 224/181/92 225/182/92 250/330/92
f 239/326/206 237/12/206 228/15/206 224/327/206
f 245/331/207 240/317/207 233/320/207 230/332/207
f 244/333/208 243/89/208 226/92/208 231/334/208
f 246/335/209 241/336/210 232/337/210 249/338/209
f 241/336/211 244/333/211 231/334/211 232/337/211
f 242/13/212 245/331/212 230/332/212 227/14/212
f 239/326/213 234/325/213 12/94/213 9/93/213
f 106/193/93 101/339/214 235/323/214 238/321/215
f 237/12/216 10/16/216 96/189/216 242/13/216
f 103/191/217 236/90/217 243/89/217 107/192/217
f 237/12/218 239/326/218 9/93/218 10/16/218
f 103/191/219 102/194/219 238/321/219 236/90/219
f 38/17/220 240/317/220 245/331/220 95/190/220
f 104/195/96 105/185/95 241/336/221 246/335/221
f 247/318/222 240/317/222 38/17/222 11/95/222
f 241/336/223 105/185/223 108/186/223 244/333/223
f 102/194/94 106/193/93 238/321/215
f 108/186/224 107/192/224 243/89/224 244/333/224
f 245/331/225 242/13/225 96/189/225 95/190/225
f 34/249/226 4/248/226 255/255/226 252/2/226
f 4/248/227 26/251/227 254/254/227 255/255/227
f 26/251/228 41/250/228 253/1/228 254/254/228
f 41/250/229 34/249/229 252/2/229 253/1/229
f 121/39/230 20/38/230 263/340/230 262/341/230
f 154/283/231 166/286/231 261/342/231 258/343/231
f 166/286/232 257/285/232 260/344/232 261/342/232
f 262/345/10 263/346/10 259/347/10 258/348/10
f 263/346/10 264/349/10 260/350/10 259/347/10
f 265/351/10 262/345/10 258/348/10 261/352/10
f 264/349/10 265/351/10 261/352/10 260/350/10
f 256/284/233 154/283/233 258/343/233 259/353/233
f 20/38/234 115/37/234 264/354/234 263/340/234
f 115/37/235 123/36/235 265/355/235 264/354/235
f 123/36/236 121/39/236 262/341/236 265/355/236
f 257/285/237 256/284/237 259/353/237 260/344/237
f 40/31/238 13/30/238 266/140/238 270/139/238
f 39/106/36 15/356/3 268/134/3 267/133/3
f 13/30/239 14/107/239 267/133/239 266/140/239
f 14/107/37 39/106/36 267/133/3
f 16/104/240 40/31/240 270/139/240 269/142/240
f 275/357/241 277/358/241 278/359/241 276/360/241
f 277/358/239 271/361/239 272/362/239 278/359/239
f 271/361/3 273/363/3 274/364/3 272/362/3
f 61/8/242 64/5/242 278/138/242 272/365/242
f 266/140/243 267/133/243 271/136/243 277/141/243
f 62/9/244 61/8/244 272/365/244 274/366/244
f 492/367/245 402/368/245 400/369/245 491/370/245
f 320/371/2 301/372/2 279/373/2
f 319/374/3 303/375/3 8/10/3 62/9/3
f 482/376/246 475/377/246 474/378/246 487/379/246
f 284/380/5 354/381/5 353/382/5 304/383/5
f 475/384/247 476/385/247 473/386/247 474/387/247
f 430/388/248 408/389/248 317/390/248 428/391/248
f 302/392/249 306/393/249 285/394/249 281/395/249
f 434/396/250 433/397/250 451/398/250 452/399/250
f 375/400/251 373/401/251 290/402/251 367/403/251
f 410/404/252 414/405/252 332/406/252 323/407/252
f 291/408/253 325/409/253 328/410/253 324/411/253
f 336/412/254 347/413/254 348/414/254 334/415/254
f 310/416/14 299/417/14 399/418/14
f 302/392/15 308/419/15 28/56/15 5/55/15
f 297/420/255 299/417/255 296/421/255 281/395/255
f 308/419/14 296/421/14 309/422/14
f 309/422/14 296/421/14 299/417/14 310/416/14
f 291/408/256 345/423/256 343/424/256 292/425/256
f 292/425/257 343/424/257 344/426/258 323/407/259
f 405/427/260 293/428/260 294/429/260 406/430/260
f 368/431/261 378/432/261 379/433/261 287/434/261
f 371/435/262 298/436/262 289/437/262 366/438/262
f 438/439/263 454/440/263 435/441/263 447/442/263
f 454/443/264 453/444/265 436/445/266 435/446/266
f 479/447/267 480/448/267 477/449/267 478/450/267
f 488/451/268 473/452/268 476/453/268 481/454/268
f 304/383/30 11/95/30 12/94/30 283/455/30
f 320/371/269 279/373/269 280/456/269 319/374/269
f 284/380/30 304/383/30 283/455/30
f 146/97/32 45/100/32 312/457/32 396/458/32
f 28/56/14 308/419/14 309/422/14 33/101/14
f 281/395/270 296/421/270 308/419/270 302/392/270
f 32/102/14 310/416/14 399/418/14 25/103/14
f 5/55/2 16/104/2 306/393/2 302/392/2
f 297/420/271 286/459/272 305/460/273 407/461/274
f 480/448/38 479/447/38 249/109/38 248/108/38
f 319/374/3 280/456/3 303/375/3
f 63/110/2 7/111/2 301/372/2 320/371/2
f 6/112/39 25/103/39 399/418/275 398/462/276
f 312/457/14 314/463/14 313/464/14 311/465/14
f 396/458/277 312/457/277 311/465/277 397/466/277
f 397/466/43 311/465/43 46/119/43 144/118/43
f 314/463/239 316/467/239 315/468/239 313/464/239
f 311/465/14 313/464/14 50/122/14 46/119/14
f 45/100/14 49/123/14 314/463/14 312/457/14
f 54/124/14 315/468/14 316/467/14 53/125/14
f 313/464/3 315/468/3 54/124/3 50/122/3
f 49/123/2 53/125/2 316/467/2 314/463/2
f 408/389/45 318/469/45 58/127/45 158/126/45
f 181/129/46 58/127/46 318/469/46 429/470/46
f 428/391/47 317/390/47 57/132/47 182/131/47
f 506/471/48 508/472/48 273/135/48 268/134/48
f 320/371/49 511/473/49 276/137/49 63/110/49
f 507/474/278 510/475/278 505/476/278
f 269/142/51 275/143/51 510/475/279 507/474/279
f 466/477/280 465/478/281 453/444/265 454/443/264
f 324/411/282 346/479/282 345/423/282 291/408/282
f 459/480/283 409/481/283 322/482/283 458/483/283
f 456/484/284 410/404/284 323/407/284
f 457/485/285 464/486/286 433/397/287 434/396/287
f 412/487/288 411/488/288 326/489/288 327/490/288
f 322/482/289 327/490/289 326/489/289 294/429/289
f 406/430/290 411/488/290 325/409/290 291/408/290
f 409/481/291 412/487/291 327/490/291 322/482/291
f 414/405/292 413/491/292 330/492/292 332/406/292
f 323/407/293 332/406/293 330/492/293 292/425/293
f 293/428/294 329/493/294 331/494/294 321/495/294
f 405/427/295 413/491/295 329/493/295 293/428/295
f 417/496/296 334/415/296 333/497/296 416/498/296
f 419/499/297 336/412/297 334/415/297 417/496/297
f 416/498/298 333/497/298 335/500/298 418/501/298
f 340/502/299 339/503/299 337/504/299 338/505/299
f 461/506/300 340/502/300 338/505/300 460/507/300
f 440/508/301 431/509/301 449/510/301 443/511/301
f 447/442/302 435/441/302 431/509/302 440/508/302
f 344/426/303 343/424/303 345/423/303 346/479/303
f 462/512/304 344/426/305 346/479/305 463/513/306
f 456/484/307 462/512/307 347/413/307 336/412/307
f 459/480/308 463/513/308 346/479/308 324/411/308
f 471/514/309 472/515/309 476/385/309 475/384/309
f 301/372/83 349/516/83 350/517/83 279/373/83
f 359/518/310 362/519/310 349/516/310 301/372/310
f 354/381/85 356/520/85 355/521/85 353/382/85
f 352/522/311 356/520/311 354/381/311 284/380/311
f 351/523/87 355/521/87 356/520/87 352/522/87
f 304/383/312 353/382/312 355/521/312 351/523/312
f 474/387/89 473/386/89 478/450/89 477/449/89
f 279/373/313 350/517/313 361/524/313 358/525/313
f 349/516/91 362/519/91 361/524/91 350/517/91
f 280/456/92 357/526/94 360/527/314 303/375/92
f 7/111/38 104/195/96 359/518/95 301/372/38
f 279/373/309 358/525/309 357/526/309 280/456/309
f 360/528/315 364/529/315 363/530/315 303/531/315
f 363/532/92 364/533/92 111/202/92 110/201/92
f 101/204/98 111/205/98 364/529/98 360/528/98
f 303/531/99 363/530/99 110/207/99 8/206/99
f 286/459/316 371/435/316 366/438/316 285/394/316
f 281/395/317 369/534/317 370/535/317 297/420/317
f 297/420/251 370/535/251 371/435/251 286/459/251
f 381/536/317 369/534/317 372/537/317 380/538/317
f 380/538/317 372/537/317 374/539/317 382/540/317
f 382/540/317 374/539/317 370/535/317 383/541/317
f 383/541/317 370/535/317 369/534/317 381/536/317
f 376/542/317 377/543/317 379/433/317 378/432/317
f 365/544/318 376/542/318 378/432/318 368/431/318
f 287/434/319 379/433/319 377/543/319 288/545/319
f 288/545/320 377/543/320 376/542/320 365/544/320
f 368/431/321 387/546/321 385/547/321 365/544/321
f 394/548/322 389/549/322 391/550/322 392/551/322
f 287/434/323 386/552/323 387/546/323 368/431/323
f 288/545/324 384/553/324 386/552/324 287/434/324
f 387/546/325 391/550/325 389/549/325 385/547/325
f 386/552/326 390/554/326 391/550/326 387/546/326
f 384/553/325 388/555/325 390/554/325 386/552/325
f 385/547/326 389/549/326 388/555/326 384/553/326
f 392/551/327 391/550/327 390/554/327 395/556/327
f 395/556/328 390/554/328 388/555/328 393/557/328
f 365/544/329 385/547/329 384/553/329 288/545/329
f 393/557/330 388/555/330 389/549/330 394/548/330
f 380/558/331 393/559/331 394/560/331 381/561/331
f 382/562/332 395/563/332 393/559/332 380/558/332
f 383/564/333 392/565/333 395/563/333 382/562/333
f 381/561/334 394/560/334 392/565/334 383/564/334
f 309/566/119 397/567/119 144/242/119 33/241/119
f 310/568/335 396/569/335 397/567/335 309/566/335
f 32/246/121 146/247/121 396/569/121 310/568/121
f 282/570/336 297/420/271 398/462/276 300/571/337
f 307/572/338 399/418/338 299/417/338 295/573/338
f 295/573/339 299/417/339 297/420/339 282/570/339
f 300/571/337 398/462/276 399/418/275 307/572/340
f 400/369/3 402/368/3 403/574/3 401/575/3
f 493/576/127 403/574/127 402/368/127 492/367/127
f 494/577/341 401/575/341 403/574/341 493/576/341
f 491/370/129 400/369/129 401/575/129 494/577/129
f 285/394/342 366/438/342 369/534/342 281/395/342
f 418/501/343 335/500/343 336/412/343 419/499/343
f 292/425/344 330/492/344 413/491/344 405/427/344
f 331/494/345 329/493/345 413/491/345 414/405/345
f 324/411/346 328/410/346 412/487/346 409/481/346
f 294/429/347 326/489/347 411/488/347 406/430/347
f 328/410/348 325/409/348 411/488/348 412/487/348
f 455/578/349 321/495/349 410/404/349 456/484/349
f 459/480/350 324/411/350 409/481/350
f 317/390/3 408/389/3 158/126/3 57/132/3
f 297/420/271 407/461/274 398/462/276
f 292/425/351 405/427/351 406/430/351 291/408/351
f 321/495/352 331/494/352 414/405/352 410/404/352
f 366/438/342 289/437/342 372/537/342 369/534/342
f 429/470/353 318/469/353 408/389/353 430/388/353
f 419/499/354 427/579/354 426/580/354 418/501/354
f 289/437/355 423/581/355 420/582/355 372/537/355
f 372/537/356 420/582/356 421/583/356 374/539/356
f 416/498/357 424/584/357 425/585/357 417/496/357
f 423/586/343 426/587/343 427/588/343 420/589/343
f 422/590/298 424/591/298 426/587/298 423/586/298
f 420/589/297 427/588/297 425/592/297 421/593/297
f 421/593/358 425/592/358 424/591/358 422/590/358
f 298/436/359 422/594/359 423/581/359 289/437/359
f 418/501/360 426/580/360 424/584/360 416/498/360
f 417/496/361 425/585/361 427/579/361 419/499/361
f 374/539/362 421/583/362 422/594/362 298/436/362
f 305/595/363 429/596/363 430/597/363 407/598/363
f 398/599/152 428/600/152 182/279/152 6/278/152
f 15/281/153 181/282/153 429/596/153 305/595/153
f 407/598/364 430/597/364 428/600/364 398/599/364
f 404/601/365 374/539/365 298/436/365 495/602/365
f 495/602/366 298/436/366 371/435/366 496/603/366
f 415/604/367 370/535/367 374/539/367 404/601/367
f 496/603/368 371/435/368 370/535/368 415/604/368
f 431/605/369 432/606/369 450/607/370 449/608/371
f 435/446/372 436/445/372 432/606/372 431/605/372
f 442/609/373 434/610/373 452/611/373 446/612/373
f 470/613/374 465/614/374 451/615/374 445/616/374
f 468/617/375 464/618/375 450/619/375 444/620/375
f 469/621/376 466/622/376 454/440/376 438/439/376
f 444/620/377 450/619/377 432/623/377 439/624/377
f 467/625/378 457/626/378 434/610/378 442/609/378
f 439/624/379 432/623/379 436/627/379 448/628/379
f 448/628/380 436/627/380 453/629/380 437/630/380
f 445/616/381 451/615/381 433/631/381 441/632/381
f 447/442/382 339/503/382 340/502/382 438/439/382
f 458/483/383 470/613/383 445/616/383 333/497/383
f 294/429/384 448/628/384 437/630/384 322/482/384
f 469/621/385 461/506/385 342/633/385 446/612/385
f 443/511/386 338/505/387 337/504/388 440/508/388
f 321/495/389 444/620/390 439/624/391 293/428/391
f 440/508/392 337/504/392 339/503/392 447/442/392
f 293/428/393 439/624/393 448/628/393 294/429/393
f 455/578/394 468/617/395 444/620/390 321/495/389
f 467/625/396 460/507/397 338/505/387 443/511/386
f 333/497/398 445/616/398 441/632/398 335/500/398
f 446/612/399 342/633/399 341/634/399 442/609/399
f 442/609/400 341/634/400 460/507/397 467/625/396
f 335/500/401 441/632/401 468/617/395 455/578/394
f 438/439/402 340/502/402 461/506/402 469/621/402
f 322/482/403 437/630/403 470/613/403 458/483/403
f 443/511/378 449/510/378 457/626/378 467/625/378
f 446/612/404 452/611/404 466/622/404 469/621/404
f 441/632/375 433/631/375 464/618/375 468/617/375
f 437/630/405 453/629/405 465/614/405 470/613/405
f 335/500/343 455/578/343 456/484/343 336/412/343
f 334/415/406 348/414/406 463/513/406 459/480/406
f 323/407/259 344/426/258 462/512/407 456/484/407
f 347/413/408 462/512/304 463/513/306 348/414/408
f 342/633/300 461/506/300 460/507/300 341/634/300
f 449/608/371 450/607/370 464/486/286 457/485/285
f 334/415/358 459/480/358 458/483/358 333/497/358
f 452/399/409 451/398/409 465/478/281 466/477/280
f 485/635/410 480/636/410 248/319/201 247/318/201
f 481/454/411 476/453/411 472/637/411 483/638/411
f 483/638/412 472/637/412 250/324/412 235/323/412
f 234/325/204 251/328/204 471/639/413 484/640/413
f 251/329/92 250/330/92 472/515/92 471/514/92
f 484/640/414 471/639/414 475/377/414 482/376/414
f 490/641/415 477/642/415 480/636/415 485/635/415
f 489/643/416 478/644/416 473/452/416 488/451/416
f 246/335/209 249/338/209 479/645/417 486/646/417
f 486/646/418 479/645/418 478/644/418 489/643/418
f 487/379/419 474/378/419 477/642/419 490/641/419
f 484/640/213 283/455/213 12/94/213 234/325/213
f 360/527/314 483/638/420 235/323/214 101/339/214
f 482/376/421 487/379/421 352/522/421 284/380/421
f 358/525/422 361/524/422 488/451/422 481/454/422
f 482/376/423 284/380/423 283/455/423 484/640/423
f 358/525/424 481/454/424 483/638/424 357/526/424
f 304/383/425 351/523/425 490/641/425 485/635/425
f 104/195/96 246/335/221 486/646/221 359/518/95
f 247/318/222 11/95/222 304/383/222 485/635/222
f 486/646/426 489/643/426 362/519/426 359/518/426
f 357/526/94 483/638/420 360/527/314
f 362/519/224 489/643/224 488/451/224 361/524/224
f 490/641/225 351/523/225 352/522/225 487/379/225
f 300/571/226 491/370/226 494/577/226 282/570/226
f 282/570/427 494/577/427 493/576/427 295/573/427
f 295/573/228 493/576/228 492/367/228 307/572/228
f 307/572/428 492/367/428 491/370/428 300/571/428
f 373/401/429 501/647/429 502/648/429 290/402/429
f 404/601/430 497/649/430 500/650/430 415/604/430
f 415/604/431 500/650/431 499/651/431 496/603/431
f 501/652/251 497/653/251 498/654/251 502/655/251
f 502/655/251 498/654/251 499/656/251 503/657/251
f 504/658/251 500/659/251 497/653/251 501/652/251
f 503/657/251 499/656/251 500/659/251 504/658/251
f 495/602/432 498/660/432 497/649/432 404/601/432
f 290/402/433 502/648/433 503/661/433 367/403/433
f 367/403/434 503/661/434 504/662/434 375/400/434
f 375/400/435 504/662/435 501/647/435 373/401/435
f 496/603/436 499/651/436 498/660/436 495/602/436
f 306/393/437 507/474/437 505/476/437 285/394/437
f 305/460/273 506/471/3 268/134/3 15/356/3
f 285/394/44 505/476/44 506/471/44 286/459/44
f 286/459/272 506/471/3 305/460/273
f 16/104/240 269/142/240 507/474/240 306/393/240
f 275/357/438 276/360/438 511/663/438 510/664/438
f 510/664/44 511/663/44 509/665/44 508/666/44
f 508/666/3 509/665/3 274/364/3 273/363/3
f 319/374/439 509/667/439 511/473/439 320/371/439
f 505/476/440 510/475/440 508/472/440 506/471/440
f 62/9/244 274/366/244 509/667/244 319/374/244
